<svg width="100" height="23" viewBox="0 0 100 23" fill="none" xmlns="http://www.w3.org/2000/svg">
<path d="M0 22.0293V0H6.87194C9.78913 0 11.9645 0.42605 13.398 1.27815C14.8316 2.13025 15.5483 3.54875 15.5483 5.53364C15.5483 5.85443 15.5283 6.17021 15.4882 6.48097C15.4481 6.79174 15.3579 7.14762 15.2175 7.54861C15.0772 7.93957 14.8917 8.29545 14.6611 8.61624C14.4306 8.93703 14.1098 9.25281 13.6988 9.56357C13.2878 9.86431 12.8066 10.0999 12.2552 10.2703C13.6186 10.6011 14.6611 11.2377 15.3829 12.18C16.1047 13.1123 16.4656 14.2652 16.4656 15.6385C16.4656 17.7137 15.7288 19.2976 14.2551 20.3903C12.7915 21.483 10.7615 22.0293 8.16512 22.0293H0ZM4.07504 19.082H7.60875C10.7365 19.082 12.3003 17.859 12.3003 15.413C12.3003 14.18 11.9094 13.2928 11.1274 12.7514C10.3455 12.2101 9.13752 11.9394 7.50349 11.9394H4.07504V19.082ZM4.07504 9.09742H7.56364C10.2603 9.09742 11.6086 8.06989 11.6086 6.01483C11.6086 4.86198 11.2176 4.07003 10.4357 3.63897C9.66382 3.20791 8.43078 2.99238 6.7366 2.99238H4.07504V9.09742Z" fill="#F7AB1F"/>
<path d="M56.0938 22.0293V0H62.9657C65.8829 0 68.0582 0.42605 69.4918 1.27815C70.9253 2.13025 71.6421 3.54875 71.6421 5.53364C71.6421 5.85443 71.622 6.17021 71.5819 6.48097C71.5418 6.79174 71.4516 7.14762 71.3113 7.54861C71.1709 7.93957 70.9855 8.29545 70.7549 8.61624C70.5243 8.93703 70.2035 9.25281 69.7925 9.56357C69.3815 9.86431 68.9003 10.0999 68.349 10.2703C69.7123 10.6011 70.7549 11.2377 71.4767 12.18C72.1984 13.1123 72.5593 14.2652 72.5593 15.6385C72.5593 17.7137 71.8225 19.2976 70.3489 20.3903C68.8853 21.483 66.8553 22.0293 64.2589 22.0293H56.0938ZM60.1688 19.082H63.7025C66.8302 19.082 68.3941 17.859 68.3941 15.413C68.3941 14.18 68.0031 13.2928 67.2212 12.7514C66.4392 12.2101 65.2313 11.9394 63.5972 11.9394H60.1688V19.082ZM60.1688 9.09742H63.6574C66.354 9.09742 67.7024 8.06989 67.7024 6.01483C67.7024 4.86198 67.3114 4.07003 66.5295 3.63897C65.7576 3.20791 64.5245 2.99238 62.8304 2.99238H60.1688V9.09742Z" fill="#F7AB1F"/>
<path d="M75.0977 22.0293V0H79.1727V22.0293H75.0977Z" fill="#F7AB1F"/>
<path d="M88.8622 22.0293V3.26304H82.4414V0H99.3431V3.26304H92.9523V22.0293H88.8622Z" fill="#F7AB1F"/>
<path d="M42.9208 22.0293V3.26304H36.5V0H53.4017V3.26304H47.0109V22.0293H42.9208Z" fill="#F7AB1F"/>
<path d="M33.499 1.59992L23.781 1.59969C21.8589 1.59965 20.3008 3.15778 20.3008 5.07985V5.07985C20.3008 7.00188 21.8589 8.56 23.7809 8.56H30.7542C31.8146 8.56 32.6742 9.41961 32.6742 10.48V10.48C32.6742 11.5404 31.8146 12.4 30.7542 12.4H24.3008C22.0916 12.4 20.3008 14.1909 20.3008 16.4V16.4C20.3008 18.6091 22.0916 20.4 24.3008 20.4H33.499" stroke="#F7AB1F" stroke-width="3.2"/>
</svg>
