<svg width="16" height="17" viewBox="0 0 16 17" fill="none" xmlns="http://www.w3.org/2000/svg">
<path d="M3 3H0V17H16V3H13V0H9V3H7V0H3V3Z" fill="white"/>
<path d="M11.5 1H10.5V4H11.5V1Z" fill="#0A0E17"/>
<path d="M5.5 1H4.5V4H5.5V1Z" fill="#0A0E17"/>
<path d="M4 6H1.5V8.5H4V6Z" fill="#0A0E17"/>
<path d="M7.5 6H5V8.5H7.5V6Z" fill="#0A0E17"/>
<path d="M11 6H8.5V8.5H11V6Z" fill="#0A0E17"/>
<path d="M14.5 6H12V8.5H14.5V6Z" fill="#0A0E17"/>
<path d="M4 9.5H1.5V12H4V9.5Z" fill="#0A0E17"/>
<path d="M7.5 9.5H5V12H7.5V9.5Z" fill="#0A0E17"/>
<path d="M11 9.5H8.5V12H11V9.5Z" fill="#0A0E17"/>
<path d="M14.5 9.5H12V12H14.5V9.5Z" fill="#0A0E17"/>
<path d="M4 13H1.5V15.5H4V13Z" fill="#0A0E17"/>
<path d="M7.5 13H5V15.5H7.5V13Z" fill="#0A0E17"/>
<path d="M11 13H8.5V15.5H11V13Z" fill="#0A0E17"/>
<path d="M14.5 13H12V15.5H14.5V13Z" fill="#0A0E17"/>
</svg>
