<svg width="14" height="14" viewBox="0 0 14 14" fill="none" xmlns="http://www.w3.org/2000/svg">
<g clip-path="url(#clip0_216_2)">
<path d="M1.65366 10.9469C2.48752 12.0757 3.65732 12.9115 4.99541 13.3346C6.3335 13.7577 7.77117 13.7463 9.10239 13.302C10.4336 12.8578 11.59 12.0035 12.4059 10.8617C13.2217 9.71983 13.6552 8.34899 13.644 6.94566L12.7137 6.95303C12.7233 8.1599 12.3505 9.33882 11.6489 10.3208C10.9472 11.3028 9.95273 12.0375 8.80788 12.4195C7.66304 12.8016 6.42664 12.8114 5.27588 12.4475C4.12513 12.0837 3.1191 11.3649 2.40198 10.3941L1.65366 10.9469Z" fill="white"/>
<path d="M1.07314 9.72569H3.08701L1.07314 11.7396V9.72569Z" fill="white" stroke="white" stroke-linecap="round" stroke-linejoin="round"/>
<path d="M12.3424 3.04918C11.5086 1.9204 10.3388 1.08457 9.00069 0.661495C7.6626 0.238418 6.22492 0.249813 4.89371 0.694047C3.56249 1.13828 2.40609 1.99254 1.59023 3.1344C0.774364 4.27627 0.340936 5.6471 0.35206 7.05043L1.28239 7.04306C1.27283 5.83619 1.64557 4.65727 2.34721 3.67527C3.04885 2.69327 4.04336 1.95861 5.18821 1.57657C6.33305 1.19453 7.56945 1.18473 8.72021 1.54857C9.87097 1.91242 10.877 2.63123 11.5941 3.60198L12.3424 3.04918Z" fill="white"/>
<path d="M12.923 4.27041L10.9091 4.27041L12.923 2.25654L12.923 4.27041Z" fill="white" stroke="white" stroke-linecap="round" stroke-linejoin="round"/>
<path d="M6.70565 10.6095V3.38086H7.33757V10.6095H6.70565ZM5.11812 9.69242V8.88324H7.43776C7.58675 8.88324 7.71519 8.84728 7.82308 8.77535C7.93611 8.70343 8.02345 8.61095 8.0851 8.49792C8.15189 8.37976 8.18528 8.25646 8.18528 8.12802C8.18528 7.9893 8.15445 7.86343 8.0928 7.7504C8.03115 7.63737 7.94381 7.54746 7.83078 7.48068C7.72289 7.41389 7.59702 7.38049 7.45317 7.38049H6.48987C6.18675 7.38049 5.91445 7.31884 5.67299 7.19554C5.43666 7.0671 5.24913 6.88985 5.11042 6.66379C4.9717 6.43774 4.90234 6.17058 4.90234 5.86233C4.90234 5.55407 4.96913 5.28435 5.10271 5.05315C5.23629 4.81682 5.41867 4.63187 5.64987 4.49829C5.88106 4.36471 6.14308 4.29792 6.43592 4.29792H8.75555V5.1071H6.52069C6.38711 5.1071 6.26638 5.14049 6.15849 5.20728C6.0506 5.27407 5.96583 5.36141 5.90418 5.4693C5.84766 5.57719 5.81941 5.69279 5.81941 5.81609C5.81941 5.94453 5.84766 6.06269 5.90418 6.17058C5.96583 6.27334 6.04803 6.35811 6.15078 6.4249C6.25867 6.48655 6.37941 6.51737 6.51299 6.51737H7.49941C7.82822 6.51737 8.11078 6.58159 8.34711 6.71003C8.58858 6.83847 8.77354 7.01572 8.90198 7.24178C9.03555 7.46783 9.10234 7.72728 9.10234 8.02013C9.10234 8.36435 9.03299 8.66233 8.89427 8.91407C8.76069 9.16068 8.57574 9.35334 8.33941 9.49205C8.10822 9.62563 7.8462 9.69242 7.55335 9.69242H5.11812Z" fill="white"/>
</g>
<defs>
<clipPath id="clip0_216_2">
<rect width="14" height="14" fill="white"/>
</clipPath>
</defs>
</svg>
