<?xml version="1.0" ?><svg xmlns="http://www.w3.org/2000/svg" xmlns:xlink="http://www.w3.org/1999/xlink" version="1.0" viewBox="0 0 48 48" enable-background="new 0 0 48 48" xml:space="preserve"><g id="Layer_1"/><g id="_x31_8_x5F_Debt"><path d="M37.373,14.072C37.255,14.024,37.128,14,37.001,14H36.5c-0.827,0-1.5-0.673-1.5-1.5s0.673-1.5,1.5-1.5h0.862   c0.25,0,0.492-0.094,0.677-0.264C39.63,9.276,40.542,7.185,40.542,5c0-0.552-0.447-1-1-1H37c-1.103,0-2,0.897-2,2h-1   c0-1.103-0.897-2-2-2h-1c-1.103,0-2,0.897-2,2h-1c0-1.103-0.897-2-2-2h-2.542c-0.552,0-1,0.448-1,1   c0,2.185,0.913,4.276,2.503,5.736C25.146,10.906,25.388,11,25.638,11H26.5c0.827,0,1.5,0.673,1.5,1.5S27.327,14,26.5,14h-0.501   c-0.127,0-0.254,0.024-0.372,0.072C20.994,15.928,18,20.418,18,25.512v3.448C17.864,28.983,17.727,29,17.586,29H16v-1   c0-0.553-0.448-1-1-1H4c-0.552,0-1,0.447-1,1s0.448,1,1,1h10v1v11H4c-0.552,0-1,0.447-1,1s0.448,1,1,1h11c0.552,0,1-0.447,1-1   h18.437c1.888,0,3.696-0.58,5.23-1.677l4.01-2.864c0.754-0.537,1.21-1.383,1.29-2.296C44.977,35.108,45,35.058,45,35v-9.488   C45,20.419,42.006,15.928,37.373,14.072z M26.196,16H26.5c1.93,0,3.5-1.57,3.5-3.5S28.43,9,26.5,9h-0.454   c-0.785-0.824-1.307-1.873-1.502-3H26c0,1.103,0.897,2,2,2h1c1.103,0,2-0.897,2-2h1c0,1.103,0.897,2,2,2h1c1.103,0,2-0.897,2-2   h1.456c-0.195,1.127-0.717,2.176-1.502,3H36.5c-1.93,0-3.5,1.57-3.5,3.5s1.57,3.5,3.5,3.5h0.304C40.574,17.593,43,21.305,43,25.512   v6.471c-0.931-0.374-1.958-0.314-2.829,0.231L35.713,35h-7.885c-0.263,0-0.521-0.106-0.707-0.293L25.414,33H28c1.654,0,3-1.346,3-3   s-1.346-3-3-3h-5.586c-0.872,0-1.702,0.254-2.414,0.721v-2.209C20,21.305,22.426,17.593,26.196,16z M42.516,35.831l-4.012,2.865   C37.312,39.549,35.904,40,34.437,40H16v-9h1.586c1.18,0,2.288-0.459,3.122-1.293C21.163,29.251,21.769,29,22.414,29H28   c0.552,0,1,0.448,1,1s-0.448,1-1,1h-6c-0.552,0-1,0.447-1,1s0.448,1,1,1h0.586l3.121,3.121C26.273,36.688,27.027,37,27.828,37   h7.885c0.375,0,0.742-0.105,1.061-0.305l4.458-2.786c0.521-0.325,0.994-0.129,1.172-0.03C42.777,34.086,43,34.464,43,34.891   C43,35.263,42.819,35.614,42.516,35.831z M37,27c0-0.552-0.448-1-1-1c-1.654,0-3-1.346-3-3c0-1.302,0.839-2.402,2-2.816V19   c0-0.552,0.447-1,1-1s1,0.448,1,1v1h1c0.553,0,1,0.448,1,1s-0.447,1-1,1h-2c-0.552,0-1,0.449-1,1s0.448,1,1,1c1.654,0,3,1.346,3,3   c0,1.302-0.839,2.402-2,2.816V31c0,0.553-0.447,1-1,1s-1-0.447-1-1v-1h-1c-0.553,0-1-0.447-1-1s0.447-1,1-1h2   C36.552,28,37,27.552,37,27z M24.293,22.707c-0.391-0.391-0.391-1.023,0-1.414s1.023-0.391,1.414,0L27,22.586V19   c0-0.552,0.447-1,1-1s1,0.448,1,1v3.586l1.293-1.293c0.391-0.391,1.023-0.391,1.414,0s0.391,1.023,0,1.414l-2.999,2.999   c-0.092,0.093-0.203,0.166-0.326,0.217C28.26,25.974,28.13,26,28,26s-0.26-0.026-0.382-0.077c-0.123-0.051-0.234-0.124-0.326-0.217   L24.293,22.707z"/></g></svg>