<svg width="16" height="14" viewBox="0 0 16 14" fill="none" xmlns="http://www.w3.org/2000/svg">
<path d="M7.80078 3V7.35297C7.80078 7.44044 7.85763 7.51777 7.94112 7.54386L11.0004 8.5" stroke="white" stroke-linecap="round"/>
<path d="M1.75434 3.84029C2.51953 2.32762 3.80765 1.14402 5.37951 0.509261C6.95138 -0.125499 8.70019 -0.168285 10.3012 0.388847C11.9022 0.945979 13.2467 2.06517 14.0849 3.53861C14.9232 5.01205 15.1983 6.73962 14.8591 8.40054C14.5199 10.0615 13.5896 11.5429 12.2407 12.5697C10.8919 13.5965 9.21632 14.099 7.52504 13.9838C5.83377 13.8687 4.24175 13.1436 3.04459 11.9434C1.96314 10.8592 1.27029 9.45378 1.06474 7.94525C1.02821 7.67711 1.23454 7.44345 1.50458 7.42576C1.77462 7.40806 2.00583 7.61315 2.04542 7.88085C2.23347 9.15241 2.82464 10.3352 3.73844 11.2514C4.76799 12.2835 6.13713 12.907 7.59163 13.0061C9.04612 13.1051 10.4872 12.673 11.6471 11.7899C12.8071 10.9069 13.6072 9.63285 13.8989 8.20446C14.1906 6.77607 13.954 5.29036 13.2331 4.02321C12.5123 2.75605 11.356 1.79354 9.97913 1.31441C8.60225 0.835275 7.09828 0.872071 5.74647 1.41796C4.39467 1.96386 3.28689 2.98175 2.62882 4.28265L1.75434 3.84029Z" fill="white"/>
<path d="M3.91992 4.06815L1.87088 4.61719L1.32185 2.56815" stroke="white" stroke-linecap="round" stroke-linejoin="round"/>
</svg>