<svg width="22" height="22" viewBox="0 0 22 22" fill="none" xmlns="http://www.w3.org/2000/svg">
<path d="M9.59013 16.152C9.59013 15.7787 9.68613 15.5067 9.87813 15.336C10.0808 15.1547 10.3368 15.064 10.6461 15.064C10.9555 15.064 11.2115 15.1547 11.4141 15.336C11.6168 15.5067 11.7181 15.7787 11.7181 16.152C11.7181 16.5253 11.6168 16.8027 11.4141 16.984C11.2115 17.1547 10.9555 17.24 10.6461 17.24C10.3368 17.24 10.0808 17.1547 9.87813 16.984C9.68613 16.8027 9.59013 16.5253 9.59013 16.152ZM13.9581 7.544C13.9581 7.992 13.8888 8.40267 13.7501 8.776C13.6115 9.13867 13.4355 9.48533 13.2221 9.816C13.0195 10.136 12.7955 10.4453 12.5501 10.744C12.3155 11.032 12.0915 11.3253 11.8781 11.624C11.6755 11.912 11.5048 12.2107 11.3661 12.52C11.2275 12.8293 11.1581 13.16 11.1581 13.512H10.1341C10.1235 13.448 10.1181 13.384 10.1181 13.32C10.1181 13.256 10.1181 13.192 10.1181 13.128C10.1181 12.4453 10.2355 11.8693 10.4701 11.4C10.7155 10.92 10.9821 10.488 11.2701 10.104C11.5688 9.70933 11.8355 9.32533 12.0701 8.952C12.3155 8.57867 12.4381 8.152 12.4381 7.672C12.4381 7.43733 12.3955 7.21867 12.3101 7.016C12.2355 6.81333 12.1288 6.63733 11.9901 6.488C11.8515 6.328 11.6861 6.20533 11.4941 6.12C11.3021 6.03467 11.0941 5.992 10.8701 5.992C10.3688 5.992 9.97946 6.14133 9.70213 6.44C9.42479 6.728 9.22746 7.192 9.11013 7.832L7.71813 7.496C7.79279 7.112 7.91546 6.75467 8.08613 6.424C8.26746 6.08267 8.49146 5.78933 8.75813 5.544C9.02479 5.29867 9.33413 5.10667 9.68613 4.968C10.0488 4.82933 10.4488 4.76 10.8861 4.76C11.4621 4.76 11.9475 4.84533 12.3421 5.016C12.7368 5.176 13.0515 5.38933 13.2861 5.656C13.5315 5.92267 13.7021 6.22133 13.7981 6.552C13.9048 6.88267 13.9581 7.21333 13.9581 7.544Z" fill="white"/>
<circle cx="11" cy="11" r="10.4" stroke="white" stroke-width="1.2"/>
</svg>