<svg width="20" height="20" viewBox="0 0 20 20" fill="none" xmlns="http://www.w3.org/2000/svg">
<path d="M20 10C20 15.5228 15.5228 20 10 20C4.47715 20 0 15.5228 0 10C0 4.47715 4.47715 0 10 0C15.5228 0 20 4.47715 20 10ZM1.5 10C1.5 14.6944 5.30558 18.5 10 18.5C14.6944 18.5 18.5 14.6944 18.5 10C18.5 5.30558 14.6944 1.5 10 1.5C5.30558 1.5 1.5 5.30558 1.5 10Z" fill="white"/>
<path d="M10 4C10.9469 4 11.8803 4.22409 12.7239 4.65396C13.5676 5.08383 14.2976 5.70726 14.8541 6.47329C15.4107 7.23932 15.778 8.12619 15.9261 9.06139C16.0743 9.9966 15.9989 10.9536 15.7063 11.8541C15.4137 12.7546 14.9122 13.5731 14.2426 14.2426C13.5731 14.9122 12.7546 15.4137 11.8541 15.7063C10.9536 15.9989 9.9966 16.0743 9.0614 15.9261C8.12619 15.778 7.23932 15.4107 6.47329 14.8541L10 10V4Z" fill="white"/>
</svg>
