<svg width="19" height="18" viewBox="0 0 19 18" fill="none" xmlns="http://www.w3.org/2000/svg">
<path d="M18 3.375H2.52022C2.05423 3.375 1.67647 2.99724 1.67647 2.53125C1.67647 2.06526 2.05423 1.6875 2.52022 1.6875H15.921C16.3869 1.6875 16.7647 1.30974 16.7647 0.84375C16.7647 0.37776 16.3869 0 15.921 0H2C0.895431 0 0 0.89543 0 2V17C0 17.5523 0.447715 18 1 18H18C18.5523 18 19 17.5523 19 17V4.375C19 3.82272 18.5523 3.375 18 3.375Z" fill="#2A2A2A"/>
<circle cx="15" cy="10.5" r="1.5" fill="#F7AB1F"/>
</svg>
