<svg width="38" height="38" viewBox="0 0 38 38" fill="none" xmlns="http://www.w3.org/2000/svg">
<circle cx="19" cy="19" r="19" fill="white" fill-opacity="0.2"/>
<path d="M12.9778 29L11.5738 20.654H9.67578V18.73H11.2618L9.90978 10.436H12.8478L14.1218 18.73H15.9158L17.3458 10.436H20.6478L22.0518 18.73H23.8718L25.1198 10.436H28.0578L26.7058 18.73H28.3178V20.654H26.3938L24.9898 29H21.3498L19.7898 20.654H18.1778L16.6438 29H12.9778ZM14.9538 25.178L15.5778 20.654H14.4078L14.9538 25.178ZM23.0398 25.178L23.5858 20.654H22.3898L23.0398 25.178ZM18.4118 18.73H19.5558L18.9838 14.466L18.4118 18.73Z" fill="white"/>
</svg>